<?xml version="1.0" encoding="UTF-8"?>
<svg version="1.1" viewBox="0 0 800 800" width="200" height="200" xmlns="http://www.w3.org/2000/svg">
<path transform="translate(157,261)" d="m0 0 3 3 6 9 11 12 15 10 15 7 18 4h23l17-4 16-7 10-6 10-8 10-12 5-8 4 4 8 11 10 10 14 9 12 6 15 4 6 1h28l15-3 15-6 15-9 11-10 8-10 4-7 4 4 7 9 9 10 14 10 17 8 18 4h23l15-3 15-6 13-8 7-6h2l2-4 8-9 5-8 3 1 10 13 10 10 14 9 15 7 18 4h21l3 42 2 54v160l-2 49-4 41-4 24-6 24-6 16-7 12-3 5-9 3-35 6-41 5-60 5-36 2-68 2h-116l-67-2-48-3-46-4-41-5-35-6-7-3-6-7-8-16-6-19-6-31-4-36-2-30-1-28v-161l2-52 3-40 1-7h20l15-3 15-6 13-8 10-8 10-11zm87 85-16 3-16 8-8 6-10 9-9 10-7 10-9 15-10 21-8 24-20 72-17 61-5 24-2 14v19l3 13 5 9 8 7 8 4 16 3 11 1h10l20-2 17-4 15-6 15-9 11-10 5-5 8-10 8-14 6-18 2-10 1-11 13 1 37 4 32 2h83l42-3 34-4 5-1 3 19 5 17 8 16 11 14 8 8 13 9 15 8 15 5 17 3 19 1 17-1 16-4 9-5 8-9 4-11 1-6v-22l-3-20-7-29-24-86-12-42-10-25-12-23-12-17-10-11-14-11-14-7-16-4h-25l-16 2-15 5-15 9-12 11-4 4-23-1-16-1h-64l-29 2h-10l-8-9-14-10-16-8-12-3-11-1z" fill="#6E42C1"/>
<path transform="translate(320,42)" d="m0 0h164l104 1 77 2 26 1 10 5 13 11 8 7 13 12 16 17 9 10 11 14 10 13 11 18 4 9 1 5v35l-2 14-5 15-7 13-8 10-10 10-14 9-11 5-12 3h-18l-14-3-15-6-13-9-11-11-9-14-5-11-5-17-2 14-6 15-8 12-10 11-10 7-14 7-14 4-5 1h-20l-16-4-16-8-10-8-7-7-9-14-6-13-2-8-1-9-3 12-6 15-8 12-9 10-11 9-16 8-15 4-5 1h-21l-19-5-17-9-12-11-8-9-8-14-5-14-1-9-4 16-5 12-9 14-10 11-14 9-14 6-14 3h-19l-17-4-16-8-11-9-10-11-8-14-5-14-2-8-5 16-8 16-9 11-11 10-14 8-15 5-10 2h-19l-12-3-15-8-10-8-12-12-9-14-5-12-3-12-1-14v-32l2-9 10-17 16-21 9-11 9-10 14-15 13-13 8-7 12-10 9-6 3-1 19-1 73-2z" fill="#6E42C1"/>
<path transform="translate(399,423)" d="m0 0 7 6 13 12 19 19 2 1v2l4 2v2h2v2h2l7 8 7 7 7 8 10 12 3 5v2l-45-1-1 40-66 1-7-1-1-2v-39l-8 1-38 1 2-5 11-13 11-12 7-8 30-30 8-7 12-12z" fill="#6E43C1"/>
</svg>
