<?xml version="1.0" encoding="UTF-8"?>
<svg version="1.1" viewBox="0 0 800 800" width="200" height="200" xmlns="http://www.w3.org/2000/svg">
<path transform="translate(49)" d="m0 0h704l14 6 11 8 9 9 8 14 5 16v688l-5 16-7 13-8 10-8 7-12 7-18 6h-680l-18-5-12-6-10-8-10-11-7-12-5-14v-695l8-18 8-10 9-9 14-8zm133 133-13 4-11 6-10 9-7 9-6 13-2 9v22l3 13 7 13 10 11 14 9 12 4 5 1h17l15-3 14-7 10-8 6-8 7-14 3-13v-17l-3-14-6-12-7-9-7-7-10-6-12-4-6-1zm340 166-19 3-18 6-17 9-13 10-16 16-9 14-1-47h-115v356l3 1h111l1-1 1-218 4-15 8-15 9-10 12-8 15-5 8-1h13l14 3 10 5 8 7 9 14 5 15 3 21 1 207 4 1h111l2-1v-226l-3-27-6-25-7-18-8-15-8-11-9-10-11-10-14-9-17-8-18-5-21-3zm-389 11v357h115l1-1v-356z" fill="#7146C5"/>
</svg>
